<?xml version="1.0" standalone="no"?>
<!DOCTYPE svg PUBLIC "-//W3C//DTD SVG 20010904//EN"
 "http://www.w3.org/TR/2001/REC-SVG-20010904/DTD/svg10.dtd">
<svg version="1.0" xmlns="http://www.w3.org/2000/svg"
 width="640.000000pt" height="640.000000pt" viewBox="0 0 640.000000 640.000000"
 preserveAspectRatio="xMidYMid meet">
<metadata>
Created by potrace 1.16, written by Peter Selinger 2001-2019
</metadata>
<g transform="translate(0.000000,640.000000) scale(0.100000,-0.100000)"
fill="#000000" stroke="none">
<path d="M4332 5483 c-40 -2 -70 -8 -67 -12 2 -5 -13 -11 -34 -15 -115 -18
-207 -91 -267 -213 -31 -64 -35 -78 -25 -100 6 -13 9 -28 6 -33 -3 -5 -1 -11
4 -14 5 -3 7 -15 4 -26 -3 -11 -10 -17 -15 -14 -17 11 19 -51 43 -71 12 -11
19 -14 15 -7 -11 18 22 15 69 -7 23 -10 68 -22 100 -26 73 -9 90 -17 50 -26
-16 -4 38 -7 122 -8 89 -1 154 -5 158 -11 4 -7 -50 -10 -155 -10 -213 0 -321
-23 -389 -84 -13 -11 -21 -15 -16 -7 6 11 4 13 -9 8 -10 -4 -15 -3 -11 3 6 10
-7 14 -34 11 -7 -2 -10 2 -7 7 6 11 -62 45 -75 37 -5 -4 -9 -2 -9 4 0 6 -7 7
-17 4 -11 -5 -14 -3 -8 6 6 10 2 11 -15 6 -15 -5 -20 -3 -16 3 10 16 -98 36
-124 22 -11 -6 -20 -13 -20 -16 0 -3 4 -3 9 0 6 4 6 -5 2 -21 -7 -23 -3 -33
19 -53 14 -14 17 -18 6 -10 -19 14 -20 14 -7 -3 20 -25 77 -65 67 -46 -4 7 2
3 14 -11 12 -14 19 -19 15 -13 -4 9 -1 11 9 7 9 -3 14 -9 12 -13 -3 -4 4 -13
16 -20 16 -10 19 -10 13 1 -4 7 2 2 13 -11 12 -15 24 -21 32 -16 9 5 11 4 6
-3 -6 -11 6 -16 19 -9 2 1 10 -7 18 -17 8 -11 19 -16 25 -12 7 4 12 2 12 -4 0
-6 4 -9 9 -6 5 4 11 0 13 -6 5 -15 40 -17 50 -4 4 6 3 17 -2 27 -11 19 -11
109 0 109 4 0 12 -37 17 -82 16 -118 38 -213 68 -288 14 -35 23 -70 21 -77 -3
-7 -1 -15 5 -19 6 -3 8 -13 5 -21 -4 -9 -2 -11 6 -7 8 5 9 2 5 -9 -4 -10 -2
-16 6 -14 7 1 11 -4 10 -10 -2 -7 2 -13 7 -13 6 0 10 7 10 16 0 10 15 3 48
-24 26 -22 55 -42 65 -45 9 -4 17 -12 17 -18 0 -8 -6 -7 -17 2 -16 12 -17 12
-6 -2 7 -9 9 -20 5 -24 -4 -5 1 -5 11 -2 9 4 17 2 17 -3 0 -5 16 -6 37 -3 29
5 35 3 28 -8 -8 -12 -6 -12 8 0 11 8 30 12 50 8 44 -7 106 21 141 64 16 19 25
28 21 22 -14 -27 3 -11 34 32 17 24 31 52 29 61 -2 9 2 19 8 21 11 4 23 -56
25 -121 0 -17 3 -24 6 -16 3 8 11 18 16 22 7 4 5 30 -6 77 -13 54 -15 76 -7
91 6 12 8 30 5 40 -12 37 21 11 44 -36 13 -26 27 -41 33 -38 7 4 8 2 4 -5 -4
-6 2 -23 13 -37 12 -15 21 -22 21 -15 0 6 9 11 21 11 11 0 17 -4 14 -10 -3 -5
0 -7 9 -4 9 3 12 12 9 21 -5 12 -3 14 6 8 10 -6 12 0 6 26 -4 25 -3 30 4 19 8
-12 11 -8 11 17 0 17 -4 34 -9 37 -4 3 -7 18 -5 33 4 25 3 26 -6 8 -9 -16 -9
-14 -5 13 5 36 -3 84 -14 78 -3 -2 -7 10 -7 27 -1 17 -6 33 -13 35 -6 2 -9 8
-6 12 9 15 -6 60 -18 53 -6 -3 -7 -1 -3 6 10 16 -3 53 -16 45 -6 -4 -8 1 -3
16 5 16 4 20 -5 15 -9 -5 -10 -1 -5 15 5 15 4 20 -4 16 -6 -4 -9 -1 -5 7 8 22
-48 63 -113 82 -84 24 -105 34 -99 44 4 5 0 12 -6 15 -7 3 5 3 27 0 32 -4 37
-3 25 6 -12 10 -11 11 7 7 12 -3 23 -1 25 3 2 5 10 10 18 12 8 2 21 12 28 23
l13 20 -5 -20 c-4 -13 4 -9 24 15 16 19 30 39 30 44 0 6 -7 1 -16 -10 -14 -18
-15 -18 -4 4 6 12 15 22 19 22 5 0 12 12 15 28 4 15 9 36 12 47 4 16 3 17 -5
5 -8 -11 -11 3 -10 55 1 39 -4 83 -10 100 -17 41 -59 95 -75 95 -7 0 -21 10
-32 22 -19 22 -19 23 1 8 18 -14 19 -14 7 2 -8 10 -20 14 -29 11 -11 -4 -14
-2 -9 5 5 8 1 10 -10 5 -12 -4 -15 -3 -10 5 5 8 2 10 -8 6 -9 -4 -18 0 -22 9
-3 9 -12 13 -21 10 -9 -4 -14 -2 -10 3 3 6 -9 8 -31 6 -28 -2 -33 -1 -22 7 13
9 12 10 -5 9 -11 -1 -53 -4 -93 -5z m44 -868 c34 -23 48 -68 34 -110 -33 -101
-190 -76 -190 30 0 74 95 123 156 80z"/>
<path d="M2989 4741 c-55 -22 -131 -72 -156 -105 -15 -19 -23 -22 -37 -14 -49
27 -79 28 -133 3 -51 -23 -54 -26 -54 -62 1 -21 -2 -56 -5 -78 -7 -47 12 -71
61 -77 l30 -3 -22 -22 c-13 -13 -23 -26 -23 -29 0 -3 20 -4 44 -3 l44 4 6 -42
c6 -42 42 -123 56 -123 4 0 10 19 13 41 7 54 18 63 71 64 50 0 57 4 72 48 7
21 26 40 55 57 36 22 46 34 57 72 10 36 19 48 42 57 17 6 44 16 60 22 17 7 41
25 55 40 13 16 28 29 34 29 15 0 99 -103 116 -143 8 -20 15 -56 15 -79 0 -24
4 -49 9 -57 16 -25 44 56 45 129 0 93 -27 140 -141 234 -28 23 -155 56 -218
55 -27 0 -71 -8 -96 -18z"/>
<path d="M2810 3866 c0 -5 -3 -6 -7 -3 -3 4 -12 2 -20 -4 -7 -7 -26 -9 -44 -5
-21 4 -28 2 -23 -6 5 -8 -1 -9 -20 -4 -20 5 -26 4 -20 -5 4 -7 2 -10 -7 -7 -8
3 -20 -2 -27 -11 -8 -9 -10 -10 -7 -3 5 10 -1 9 -24 -2 -17 -9 -31 -19 -31
-22 0 -3 5 -2 11 1 6 4 5 -2 -3 -14 -7 -12 -16 -21 -19 -21 -4 0 -16 -24 -28
-52 -12 -29 -26 -62 -31 -73 -10 -21 -30 -168 -30 -217 0 -26 3 -28 37 -28 20
0 62 -5 92 -10 31 -6 86 -13 123 -16 80 -7 73 14 87 -244 5 -96 12 -183 16
-192 4 -9 21 -19 38 -23 36 -6 177 -37 282 -61 138 -31 250 -53 276 -53 43 -1
62 31 65 107 2 37 8 157 15 267 l12 200 56 44 c31 24 64 54 73 65 14 20 14 24
-1 53 -39 77 -109 180 -146 215 -38 37 -54 44 -153 68 -23 6 -40 15 -38 19 3
4 -14 7 -38 7 -39 -1 -44 -4 -58 -38 -30 -69 -112 -97 -181 -62 -49 25 -101
69 -127 107 -20 29 -29 34 -62 33 -21 0 -38 -5 -38 -10z"/>
<path d="M1940 3199 c19 -7 14 -8 -20 -4 -34 4 -41 3 -30 -6 12 -9 11 -10 -7
-6 -13 3 -23 1 -23 -5 0 -6 -7 -8 -15 -4 -20 7 -86 -24 -79 -38 3 -6 -3 0 -14
14 -12 14 -24 21 -28 17 -4 -4 -2 -7 5 -7 7 0 9 -5 6 -10 -4 -6 -11 -7 -17 -4
-7 4 -8 2 -4 -4 4 -6 13 -9 21 -5 11 4 13 1 9 -12 -6 -16 -5 -16 23 -2 27 14
33 14 72 -4 85 -38 125 -86 146 -174 13 -54 8 -65 -38 -91 -19 -11 -19 -11 2
-17 11 -3 18 -1 15 4 -3 5 1 12 9 15 8 3 24 19 37 36 12 17 17 27 10 23 -6 -4
-4 4 5 19 18 27 31 36 20 14 -4 -7 1 -4 10 7 23 27 47 84 40 95 -3 4 0 10 7
12 7 3 14 31 16 69 l4 65 -43 -1 c-24 0 -71 3 -104 7 -40 4 -52 3 -35 -3z"/>
<path d="M1397 2979 c-9 -6 -17 -7 -17 -3 0 3 -6 1 -14 -5 -10 -8 -16 -9 -21
-1 -3 5 -14 10 -23 9 -14 0 -14 -2 3 -10 16 -7 13 -8 -13 -4 -30 4 -92 -16
-92 -31 0 -3 5 -2 12 2 7 5 8 3 4 -5 -5 -7 -14 -10 -22 -7 -8 3 -13 2 -12 -2
1 -4 -3 -16 -7 -26 -9 -21 20 -50 42 -42 7 3 12 0 10 -7 -1 -7 6 -11 15 -11
10 1 16 -2 13 -6 -7 -11 24 -22 37 -13 6 3 9 2 6 -3 -3 -5 3 -17 14 -26 13
-13 18 -14 18 -4 0 7 18 26 40 41 22 15 37 32 33 38 -3 5 -1 7 5 4 10 -7 122
77 122 92 0 4 -17 5 -37 3 -30 -2 -35 -1 -23 8 12 8 8 10 -20 8 -19 -1 -40 1
-45 4 -6 4 -18 2 -28 -3z"/>
<path d="M1883 2810 c-13 -5 -23 -13 -23 -18 0 -5 -13 -15 -30 -22 -16 -7 -42
-23 -57 -36 -40 -35 -47 -40 -74 -54 -13 -7 -26 -16 -29 -19 -3 -4 -34 -26
-70 -50 -36 -24 -68 -48 -71 -54 -4 -5 -12 -6 -18 -3 -6 4 -11 2 -11 -3 0 -6
3 -11 8 -11 4 0 6 -38 5 -84 -2 -69 0 -84 12 -82 8 1 22 11 31 22 8 10 12 12
8 5 -9 -17 52 24 62 42 4 7 -3 3 -17 -8 l-24 -20 19 22 c10 12 21 22 25 21 18
-2 31 3 31 13 0 6 16 25 35 43 19 19 35 40 35 47 0 11 -2 11 -10 -1 -7 -10
-10 -11 -10 -2 0 7 6 15 13 18 8 3 12 17 10 37 -3 26 -1 28 6 12 9 -18 10 -17
8 7 -1 15 -5 24 -10 21 -5 -3 -7 3 -5 13 2 11 31 39 64 64 133 99 132 98 87
80z"/>
<path d="M2702 2624 c-11 -5 -50 -68 -115 -186 -63 -114 -73 -257 -27 -383 12
-33 30 -84 41 -114 10 -30 24 -59 29 -66 6 -7 7 -21 3 -30 -4 -11 -3 -16 4
-12 5 3 23 -7 38 -23 l29 -30 -136 0 c-197 0 -248 -25 -248 -124 0 -36 28 -72
67 -87 31 -11 259 -15 926 -13 400 2 487 -1 487 -11 0 -8 -6 -17 -12 -22 -7
-4 -322 -6 -700 -4 -649 3 -689 2 -715 -15 -40 -25 -52 -45 -53 -81 -1 -87 46
-116 177 -111 50 1 89 0 86 -4 -2 -5 251 -8 562 -8 375 0 564 -3 560 -10 -4
-6 -219 -10 -613 -10 -583 0 -608 -1 -639 -20 -38 -23 -55 -52 -55 -95 0 -81
51 -115 173 -115 61 0 90 -4 98 -14 13 -15 29 -45 137 -255 80 -156 124 -211
159 -197 10 3 13 2 10 -4 -4 -7 79 -10 252 -10 142 0 257 -3 256 -7 -1 -4 -4
-15 -7 -23 -5 -12 19 -29 96 -68 57 -29 155 -79 218 -113 151 -80 159 -83 157
-59 -1 10 -5 16 -11 13 -5 -4 -7 1 -3 10 3 9 -1 21 -11 29 -16 12 -16 11 -2
-7 15 -20 14 -20 -8 -1 -23 20 -31 42 -9 30 7 -4 9 -3 4 2 -5 5 -14 9 -20 9
-7 1 -11 6 -10 12 1 6 -5 17 -14 25 -14 11 -16 11 -8 -2 4 -8 4 -12 0 -7 -19
17 -15 48 8 57 19 8 17 9 -15 11 -59 3 -61 3 -65 19 -4 13 -3 13 6 0 9 -13 11
-13 11 3 0 9 -4 17 -10 17 -6 0 -6 9 -1 23 5 12 14 21 21 19 7 -1 9 5 5 17 -3
11 0 23 6 27 8 5 10 2 5 -7 -4 -8 0 -5 8 6 9 11 14 26 11 33 -3 8 0 20 6 28
11 14 20 9 -150 95 -106 55 -105 54 -97 67 6 9 208 -59 273 -93 18 -9 36 -14
41 -11 4 2 24 44 42 91 l35 86 7 -38 c4 -21 7 -60 8 -88 1 -34 4 -44 9 -31 7
18 18 20 172 18 90 -1 220 -4 289 -6 113 -4 123 -3 105 11 -24 19 -209 107
-250 121 -28 9 -30 12 -27 57 1 32 8 52 20 61 9 7 13 14 8 14 -5 0 -1 9 9 20
14 16 16 23 7 32 -9 9 -12 7 -12 -11 0 -14 -4 -20 -12 -15 -7 5 -8 3 -3 -6 5
-8 3 -11 -6 -8 -8 2 -15 17 -17 31 l-3 27 -145 0 c-79 0 -144 3 -144 8 0 4 -3
37 -6 75 -4 38 -3 67 2 67 5 0 45 4 89 9 44 6 116 12 159 15 44 3 81 8 84 10
6 7 -17 797 -28 938 -5 70 -15 129 -24 147 -9 16 -16 32 -16 35 0 3 42 7 93 9
50 1 -116 4 -371 5 -360 2 -463 5 -466 15 -2 6 -7 26 -13 43 -8 25 -7 33 5 40
11 8 13 17 7 40 l-8 29 -7 -30 c-6 -29 -6 -29 -14 13 -4 23 -15 46 -24 51 -10
5 -152 9 -317 9 -165 -1 -331 2 -370 5 -38 3 -76 4 -83 1z"/>
<path d="M783 473 c10 -9 2657 -12 2657 -2 0 5 -595 9 -1332 9 -732 0 -1328
-3 -1325 -7z"/>
</g>
</svg>
